<svg width="143" height="40" viewBox="0 0 143 40" fill="none" xmlns="http://www.w3.org/2000/svg">
<rect x="0.375" width="40" height="40" rx="7.5" fill="#1F2937"/>
<path fill-rule="evenodd" clip-rule="evenodd" d="M9.88083 34.0642C10.4564 34.1677 11.0402 34.2195 11.625 34.2188C13.4734 34.2212 15.2848 33.701 16.8502 32.7181C17.979 32.9835 19.1602 33.125 20.375 33.125C28.1363 33.125 34.5938 27.3354 34.5938 20C34.5938 12.6646 28.1363 6.875 20.375 6.875C12.6137 6.875 6.15625 12.6646 6.15625 20C6.15625 23.5131 7.65104 26.6894 10.0558 29.03C10.3942 29.3596 10.4598 29.6542 10.4262 29.8219C10.246 30.7291 9.83746 31.5753 9.23917 32.2806C9.11496 32.4273 9.03158 32.604 8.99742 32.7931C8.96326 32.9822 8.97952 33.177 9.04458 33.3578C9.10963 33.5387 9.22118 33.6991 9.36799 33.8231C9.51479 33.9471 9.69168 34.0303 9.88083 34.0642ZM14.9062 18.3594C14.4711 18.3594 14.0538 18.5322 13.7462 18.8399C13.4385 19.1476 13.2656 19.5649 13.2656 20C13.2656 20.4351 13.4385 20.8524 13.7462 21.1601C14.0538 21.4678 14.4711 21.6406 14.9062 21.6406C15.3414 21.6406 15.7587 21.4678 16.0663 21.1601C16.374 20.8524 16.5469 20.4351 16.5469 20C16.5469 19.5649 16.374 19.1476 16.0663 18.8399C15.7587 18.5322 15.3414 18.3594 14.9062 18.3594ZM18.7344 20C18.7344 19.5649 18.9072 19.1476 19.2149 18.8399C19.5226 18.5322 19.9399 18.3594 20.375 18.3594C20.8101 18.3594 21.2274 18.5322 21.5351 18.8399C21.8428 19.1476 22.0156 19.5649 22.0156 20C22.0156 20.4351 21.8428 20.8524 21.5351 21.1601C21.2274 21.4678 20.8101 21.6406 20.375 21.6406C19.9399 21.6406 19.5226 21.4678 19.2149 21.1601C18.9072 20.8524 18.7344 20.4351 18.7344 20ZM25.8438 18.3594C25.4086 18.3594 24.9913 18.5322 24.6837 18.8399C24.376 19.1476 24.2031 19.5649 24.2031 20C24.2031 20.4351 24.376 20.8524 24.6837 21.1601C24.9913 21.4678 25.4086 21.6406 25.8438 21.6406C26.2789 21.6406 26.6962 21.4678 27.0038 21.1601C27.3115 20.8524 27.4844 20.4351 27.4844 20C27.4844 19.5649 27.3115 19.1476 27.0038 18.8399C26.6962 18.5322 26.2789 18.3594 25.8438 18.3594Z" fill="#EFF6FF"/>
<rect x="26" y="5.625" width="8.75" height="8.75" rx="4.375" fill="#00AEEF"/>
<rect x="26" y="5.625" width="8.75" height="8.75" rx="4.375" stroke="#1F2937" stroke-width="1.25"/>
<path d="M52.6426 19.2035C49.9977 19.2035 48.4678 18.2513 47.9632 17.1038C47.8411 16.8353 47.7842 16.5586 47.7842 16.29C47.7842 15.46 48.4108 14.8903 49.2653 14.8903C49.9163 14.8903 50.3558 15.0937 50.8197 15.7448C51.2266 16.3226 51.9102 16.5586 52.6833 16.5586C53.7168 16.5586 54.3516 16.1354 54.3516 15.5576C54.3516 15.0042 53.8958 14.7682 52.5775 14.5322L51.3975 14.3206C49.0618 13.9056 47.7842 12.7256 47.7842 10.9027C47.7842 8.54264 49.8187 7.05338 52.61 7.05338C54.9375 7.05338 56.6058 7.87532 57.2161 9.34017C57.3138 9.57617 57.3626 9.7959 57.3626 10.0645C57.3626 10.8457 56.793 11.3747 55.9303 11.3828C55.1979 11.3828 54.734 11.1305 54.319 10.5039C53.9365 9.91797 53.3913 9.69824 52.6507 9.69824C51.6904 9.69824 51.2021 10.1214 51.2021 10.6504C51.2021 11.1794 51.7067 11.4316 52.8786 11.6432L54.0586 11.8548C56.5814 12.3105 57.7695 13.3441 57.7695 15.2484C57.7695 17.6654 55.8815 19.2035 52.6426 19.2035ZM61.6722 19.179C59.7435 19.179 58.3275 17.9176 58.3275 15.7773V11.5374C58.3275 10.3574 59.0192 9.81217 59.9958 9.81217C60.9723 9.81217 61.6641 10.3574 61.6641 11.5456V15.0286C61.6641 15.9808 62.1768 16.4854 62.958 16.4854C63.7067 16.4854 64.195 15.9076 64.195 15.0368V11.5374C64.195 10.3574 64.8867 9.81217 65.8633 9.81217C66.8398 9.81217 67.5316 10.3574 67.5316 11.5456V17.5026C67.5316 18.6745 66.8643 19.2035 65.904 19.2035C64.9437 19.2035 64.2764 18.6745 64.2764 17.5107V17.234H64.2113C63.8532 18.4548 63.015 19.179 61.6722 19.179ZM69.9938 19.2035C69.0173 19.2035 68.3255 18.6582 68.3255 17.4782V8.77865C68.3255 7.59863 69.0173 7.05338 69.9938 7.05338C70.9704 7.05338 71.6621 7.59863 71.6621 8.78678V11.6351H71.7272C72.1504 10.5365 73.1107 9.88542 74.3965 9.88542C76.667 9.88542 77.9202 11.5374 77.9202 14.5078C77.9202 17.4701 76.6751 19.1302 74.4372 19.1302C73.1188 19.1302 72.1423 18.4954 71.7272 17.4456H71.6621V17.4782C71.6621 18.6582 70.9704 19.2035 69.9938 19.2035ZM73.0781 16.5586C73.9489 16.5586 74.5023 15.7611 74.5023 14.5078C74.5023 13.2627 73.9408 12.457 73.0781 12.457C72.2074 12.457 71.654 13.2627 71.6458 14.516C71.654 15.7855 72.1992 16.5586 73.0781 16.5586ZM82.6123 19.2279C80.1139 19.2279 78.6247 18.4792 78.2096 17.4782C78.1364 17.291 78.0957 17.0957 78.0957 16.9411C78.0957 16.2249 78.6247 15.7041 79.3652 15.7041C79.8779 15.7041 80.3255 15.9076 80.8138 16.3551C81.3184 16.8271 81.888 17.0469 82.6123 17.0469C83.2552 17.0469 83.654 16.8109 83.654 16.4365C83.654 16.111 83.3936 15.932 82.6367 15.7936L81.0091 15.4925C79.2269 15.167 78.291 14.1986 78.291 12.807C78.291 10.9352 79.8779 9.78776 82.4902 9.78776C84.7119 9.78776 86.1198 10.6504 86.4697 11.6107C86.5267 11.7653 86.5592 11.9281 86.5592 12.0908C86.5592 12.7174 86.1686 13.1732 85.2897 13.1732C84.9479 13.1732 84.4678 13.0348 84.1992 12.8232C83.7354 12.4733 83.3285 11.9687 82.4902 11.9687C81.888 11.9687 81.4811 12.2129 81.4811 12.6198C81.4811 12.9372 81.7008 13.1325 82.5147 13.2871L84.1423 13.5882C86.0872 13.9463 86.958 14.695 86.958 16.054C86.958 18.0072 85.2165 19.2279 82.6123 19.2279ZM91.8128 19.2279C88.8994 19.2279 87.1253 17.4619 87.1253 14.4997C87.1253 11.57 88.9076 9.78776 91.7965 9.78776C93.7008 9.78776 95.2227 10.5771 95.8411 11.8874C95.9795 12.1803 96.0609 12.4977 96.0609 12.7581C96.0609 13.5475 95.3773 13.9951 94.6286 13.9951C93.9938 13.9951 93.5951 13.7428 93.2939 13.2464C92.887 12.5628 92.472 12.2699 91.9268 12.2699C90.9909 12.2699 90.5026 13.0267 90.5026 14.4997C90.5026 15.9808 90.9746 16.7458 91.9023 16.7458C92.5452 16.7458 92.944 16.3796 93.2451 15.9482C93.6683 15.346 94.0426 15.0531 94.7425 15.0531C95.4749 15.0531 96.126 15.5251 96.126 16.3389C96.126 16.5993 96.0609 16.876 95.8818 17.2178C95.2471 18.4141 93.6113 19.2279 91.8128 19.2279ZM98.3359 19.2035C97.3106 19.2035 96.6676 18.6175 96.6676 17.4782V11.4805C96.6676 10.3981 97.3187 9.81217 98.2953 9.81217C99.2311 9.81217 99.874 10.3981 99.874 11.4886V11.8141H99.9391C100.151 10.5202 100.745 9.88542 101.64 9.88542C101.974 9.88542 102.25 9.9668 102.454 10.1214C102.787 10.3656 102.958 10.7969 102.958 11.4154C102.958 11.9443 102.804 12.3431 102.494 12.6198C102.185 12.8965 101.721 13.043 101.111 13.0674C100.216 13.0999 100.004 13.3929 100.004 14.3776V17.4782C100.004 18.6175 99.3613 19.2035 98.3359 19.2035ZM104.835 9.27506C103.891 9.27506 103.174 8.59147 103.174 7.69629C103.174 6.80111 103.891 6.11751 104.835 6.11751C105.779 6.11751 106.495 6.80111 106.495 7.69629C106.495 8.59147 105.779 9.27506 104.835 9.27506ZM104.835 19.2035C103.777 19.2035 103.166 18.5768 103.166 17.4782V11.5374C103.166 10.4388 103.777 9.81217 104.835 9.81217C105.893 9.81217 106.503 10.4469 106.503 11.5456V17.4782C106.503 18.5768 105.893 19.2035 104.835 19.2035ZM108.965 19.2035C107.989 19.2035 107.297 18.6582 107.297 17.4782V8.77865C107.297 7.59863 107.989 7.05338 108.965 7.05338C109.942 7.05338 110.633 7.59863 110.633 8.78678V11.6351H110.699C111.122 10.5365 112.082 9.88542 113.368 9.88542C115.638 9.88542 116.892 11.5374 116.892 14.5078C116.892 17.4701 115.646 19.1302 113.409 19.1302C112.09 19.1302 111.114 18.4954 110.699 17.4456H110.633V17.4782C110.633 18.6582 109.942 19.2035 108.965 19.2035ZM112.049 16.5586C112.92 16.5586 113.474 15.7611 113.474 14.5078C113.474 13.2627 112.912 12.457 112.049 12.457C111.179 12.457 110.625 13.2627 110.617 14.516C110.625 15.7855 111.171 16.5586 112.049 16.5586ZM121.885 19.2279C118.939 19.2279 117.189 17.4782 117.189 14.5566C117.189 11.6188 118.955 9.78776 121.779 9.78776C124.562 9.78776 126.361 11.5618 126.361 13.9788C126.361 14.7764 125.905 15.2158 125.075 15.2158H120.404V15.4274C120.404 16.3063 121.038 16.9411 121.934 16.9411C122.658 16.9411 123.179 16.7214 123.813 16.1598C124.163 15.8506 124.424 15.7448 124.831 15.7448C125.474 15.7448 126.051 16.1598 126.051 16.876C126.051 17.1283 125.978 17.3724 125.832 17.6084C125.229 18.6094 123.716 19.2279 121.885 19.2279ZM120.452 13.4092H123.252C123.195 12.6035 122.633 12.0827 121.852 12.0827C121.095 12.0827 120.518 12.6361 120.452 13.4092ZM128.546 19.2035C127.521 19.2035 126.878 18.6175 126.878 17.4782V11.4805C126.878 10.3981 127.529 9.81217 128.506 9.81217C129.441 9.81217 130.084 10.3981 130.084 11.4886V11.8141H130.149C130.361 10.5202 130.955 9.88542 131.85 9.88542C132.184 9.88542 132.461 9.9668 132.664 10.1214C132.998 10.3656 133.169 10.7969 133.169 11.4154C133.169 11.9443 133.014 12.3431 132.705 12.6198C132.396 12.8965 131.932 13.043 131.321 13.0674C130.426 13.0999 130.215 13.3929 130.215 14.3776V17.4782C130.215 18.6175 129.572 19.2035 128.546 19.2035ZM137.543 19.2279C135.045 19.2279 133.556 18.4792 133.141 17.4782C133.067 17.291 133.027 17.0957 133.027 16.9411C133.027 16.2249 133.556 15.7041 134.296 15.7041C134.809 15.7041 135.257 15.9076 135.745 16.3551C136.249 16.8271 136.819 17.0469 137.543 17.0469C138.186 17.0469 138.585 16.8109 138.585 16.4365C138.585 16.111 138.325 15.932 137.568 15.7936L135.94 15.4925C134.158 15.167 133.222 14.1986 133.222 12.807C133.222 10.9352 134.809 9.78776 137.421 9.78776C139.643 9.78776 141.051 10.6504 141.401 11.6107C141.458 11.7653 141.49 11.9281 141.49 12.0908C141.49 12.7174 141.1 13.1732 140.221 13.1732C139.879 13.1732 139.399 13.0348 139.13 12.8232C138.666 12.4733 138.259 11.9687 137.421 11.9687C136.819 11.9687 136.412 12.2129 136.412 12.6198C136.412 12.9372 136.632 13.1325 137.446 13.2871L139.073 13.5882C141.018 13.9463 141.889 14.695 141.889 16.054C141.889 18.0072 140.147 19.2279 137.543 19.2279Z" fill="#1F2937"/>
<path d="M75.5495 33.2148C74.7747 33.2148 74.2474 32.6745 74.2474 31.9323C74.2474 31.1966 74.7747 30.6562 75.5495 30.6562C76.3307 30.6562 76.8581 31.1966 76.8581 31.9323C76.8581 32.6745 76.3307 33.2148 75.5495 33.2148ZM81.7018 33.2539C78.8893 33.2539 77.1576 31.3659 77.1576 28.306V28.293C77.1576 25.2331 78.8828 23.3516 81.7018 23.3516C84.0651 23.3516 85.7904 24.8685 85.9271 26.9453V27.0625H83.6289L83.6224 27.0039C83.4857 26.0208 82.7305 25.3307 81.7018 25.3307C80.3932 25.3307 79.5924 26.4505 79.5924 28.2865V28.2995C79.5924 30.1484 80.3932 31.2747 81.7083 31.2747C82.737 31.2747 83.4596 30.6302 83.6224 29.6602L83.6354 29.5885H85.9336V29.6927C85.7773 31.7891 84.1107 33.2539 81.7018 33.2539ZM86.832 33V23.6055H89.2214V27.2904H92.9648V23.6055H95.3477V33H92.9648V29.2109H89.2214V33H86.832ZM96.0964 33L99.2539 23.6055H102.177L105.335 33H102.828L102.249 30.9362H99.1823L98.6029 33H96.0964ZM100.654 25.6758L99.6641 29.2174H101.767L100.777 25.6758H100.654ZM107.307 33V25.526H104.599V23.6055H112.405V25.526H109.69V33H107.307ZM116.188 23.0391L113.622 35.3958H111.52L114.085 23.0391H116.188Z" fill="#00AEEF"/>
</svg>
