<svg width="68" height="40" viewBox="0 0 68 40" fill="none" xmlns="http://www.w3.org/2000/svg">
<rect x="26" width="16" height="16" rx="3" fill="#1F2937"/>
<path fill-rule="evenodd" clip-rule="evenodd" d="M29.8023 13.6257C30.0326 13.6671 30.2661 13.6878 30.5 13.6875C31.2394 13.6885 31.9639 13.4804 32.5901 13.0873C33.0416 13.1934 33.5141 13.25 34 13.25C37.1045 13.25 39.6875 10.9342 39.6875 8C39.6875 5.06583 37.1045 2.75 34 2.75C30.8955 2.75 28.3125 5.06583 28.3125 8C28.3125 9.40525 28.9104 10.6758 29.8723 11.612C30.0077 11.7438 30.0339 11.8617 30.0205 11.9288C29.9484 12.2916 29.785 12.6301 29.5457 12.9123C29.496 12.9709 29.4626 13.0416 29.449 13.1173C29.4353 13.1929 29.4418 13.2708 29.4678 13.3431C29.4939 13.4155 29.5385 13.4797 29.5972 13.5293C29.6559 13.5789 29.7267 13.6121 29.8023 13.6257ZM31.8125 7.34375C31.6385 7.34375 31.4715 7.41289 31.3485 7.53596C31.2254 7.65903 31.1562 7.82595 31.1562 8C31.1562 8.17405 31.2254 8.34097 31.3485 8.46404C31.4715 8.58711 31.6385 8.65625 31.8125 8.65625C31.9865 8.65625 32.1535 8.58711 32.2765 8.46404C32.3996 8.34097 32.4688 8.17405 32.4688 8C32.4688 7.82595 32.3996 7.65903 32.2765 7.53596C32.1535 7.41289 31.9865 7.34375 31.8125 7.34375ZM33.3438 8C33.3438 7.82595 33.4129 7.65903 33.536 7.53596C33.659 7.41289 33.826 7.34375 34 7.34375C34.174 7.34375 34.341 7.41289 34.464 7.53596C34.5871 7.65903 34.6562 7.82595 34.6562 8C34.6562 8.17405 34.5871 8.34097 34.464 8.46404C34.341 8.58711 34.174 8.65625 34 8.65625C33.826 8.65625 33.659 8.58711 33.536 8.46404C33.4129 8.34097 33.3438 8.17405 33.3438 8ZM36.1875 7.34375C36.0135 7.34375 35.8465 7.41289 35.7235 7.53596C35.6004 7.65903 35.5312 7.82595 35.5312 8C35.5312 8.17405 35.6004 8.34097 35.7235 8.46404C35.8465 8.58711 36.0135 8.65625 36.1875 8.65625C36.3615 8.65625 36.5285 8.58711 36.6515 8.46404C36.7746 8.34097 36.8438 8.17405 36.8438 8C36.8438 7.82595 36.7746 7.65903 36.6515 7.53596C36.5285 7.41289 36.3615 7.34375 36.1875 7.34375Z" fill="#EFF6FF"/>
<rect x="36.25" y="2.25" width="3.5" height="3.5" rx="1.75" fill="#00AEEF"/>
<rect x="36.25" y="2.25" width="3.5" height="3.5" rx="1.75" stroke="#1F2937" stroke-width="0.5"/>
<path d="M3.44922 29.1221C1.8623 29.1221 0.944336 28.5508 0.641602 27.8623C0.568359 27.7012 0.53418 27.5352 0.53418 27.374C0.53418 26.876 0.910156 26.5342 1.42285 26.5342C1.81348 26.5342 2.07715 26.6562 2.35547 27.0469C2.59961 27.3936 3.00977 27.5352 3.47363 27.5352C4.09375 27.5352 4.47461 27.2812 4.47461 26.9346C4.47461 26.6025 4.20117 26.4609 3.41016 26.3193L2.70215 26.1924C1.30078 25.9434 0.53418 25.2354 0.53418 24.1416C0.53418 22.7256 1.75488 21.832 3.42969 21.832C4.82617 21.832 5.82715 22.3252 6.19336 23.2041C6.25195 23.3457 6.28125 23.4775 6.28125 23.6387C6.28125 24.1074 5.93945 24.4248 5.42188 24.4297C4.98242 24.4297 4.7041 24.2783 4.45508 23.9023C4.22559 23.5508 3.89844 23.4189 3.4541 23.4189C2.87793 23.4189 2.58496 23.6729 2.58496 23.9902C2.58496 24.3076 2.8877 24.459 3.59082 24.5859L4.29883 24.7129C5.8125 24.9863 6.52539 25.6064 6.52539 26.749C6.52539 28.1992 5.39258 29.1221 3.44922 29.1221ZM10.1023 29.1221C8.24199 29.1221 6.99687 28.0967 6.99687 26.4902V22.916C6.99687 22.2227 7.37285 21.832 8.03203 21.832C8.69121 21.832 9.06719 22.2227 9.06719 22.916V26.2607C9.06719 27.0029 9.4334 27.4082 10.1023 27.4082C10.7713 27.4082 11.1375 27.0029 11.1375 26.2607V22.916C11.1375 22.2227 11.5135 21.832 12.1727 21.832C12.8318 21.832 13.2078 22.2227 13.2078 22.916V26.4902C13.2078 28.0967 11.9627 29.1221 10.1023 29.1221ZM14.9195 29C14.2604 29 13.8844 28.6094 13.8844 27.916V23.0381C13.8844 22.3447 14.2604 21.9541 14.9195 21.9541H17.3463C18.7867 21.9541 19.6314 22.6133 19.6314 23.7119C19.6314 24.5225 19.0162 25.1328 18.2008 25.2354V25.2744C19.1529 25.2988 19.9488 26.0166 19.9488 26.9492C19.9488 28.1846 18.9723 29 17.4635 29H14.9195ZM15.9547 24.7764H16.7555C17.2877 24.7764 17.6197 24.498 17.6197 24.0732C17.6197 23.6387 17.3072 23.375 16.7848 23.375H15.9547V24.7764ZM15.9547 27.5791H16.8385C17.4781 27.5791 17.8443 27.291 17.8443 26.7588C17.8443 26.2559 17.4732 25.9629 16.8531 25.9629H15.9547V27.5791ZM23.1742 29.1221C21.5873 29.1221 20.6693 28.5508 20.3666 27.8623C20.2934 27.7012 20.2592 27.5352 20.2592 27.374C20.2592 26.876 20.6352 26.5342 21.1479 26.5342C21.5385 26.5342 21.8021 26.6562 22.0805 27.0469C22.3246 27.3936 22.7348 27.5352 23.1986 27.5352C23.8188 27.5352 24.1996 27.2812 24.1996 26.9346C24.1996 26.6025 23.9262 26.4609 23.1352 26.3193L22.4271 26.1924C21.0258 25.9434 20.2592 25.2354 20.2592 24.1416C20.2592 22.7256 21.4799 21.832 23.1547 21.832C24.5512 21.832 25.5521 22.3252 25.9184 23.2041C25.977 23.3457 26.0063 23.4775 26.0063 23.6387C26.0063 24.1074 25.6645 24.4248 25.1469 24.4297C24.7074 24.4297 24.4291 24.2783 24.1801 23.9023C23.9506 23.5508 23.6234 23.4189 23.1791 23.4189C22.6029 23.4189 22.31 23.6729 22.31 23.9902C22.31 24.3076 22.6127 24.459 23.3158 24.5859L24.0238 24.7129C25.5375 24.9863 26.2504 25.6064 26.2504 26.749C26.2504 28.1992 25.1176 29.1221 23.1742 29.1221ZM30.1008 29.1221C27.8645 29.1221 26.551 27.7988 26.551 25.4746C26.551 23.1504 27.8937 21.832 30.0227 21.832C31.3703 21.832 32.3664 22.3447 32.923 23.3262C33.0646 23.5703 33.1379 23.8291 33.1379 24.0781C33.1379 24.6055 32.7814 24.9473 32.2395 24.9473C31.7902 24.9473 31.5168 24.7715 31.2922 24.3369C30.9797 23.7363 30.5891 23.458 30.0471 23.458C29.1975 23.458 28.6604 24.21 28.6604 25.4697C28.6604 26.7441 29.1926 27.4961 30.052 27.4961C30.6184 27.4961 31.0139 27.208 31.3117 26.583C31.5217 26.1387 31.7707 25.9678 32.2053 25.9678C32.7961 25.9678 33.1818 26.3291 33.1818 26.8809C33.1818 27.0566 33.1428 27.2422 33.0695 27.4229C32.6594 28.4434 31.4729 29.1221 30.1008 29.1221ZM34.8496 29.1221C34.1904 29.1221 33.8145 28.7314 33.8145 28.0381V23.0381C33.8145 22.3447 34.1904 21.9541 34.8496 21.9541H36.9443C38.8242 21.9541 39.791 22.8379 39.791 24.3467C39.791 25.1279 39.459 25.8652 38.79 26.2559L39.5273 27.4668C39.708 27.7695 39.7471 27.9307 39.7471 28.1748C39.7471 28.7266 39.3174 29.1221 38.7168 29.1221C38.209 29.1221 38.0039 28.9414 37.6377 28.292L36.71 26.6367H35.8848V28.0381C35.8848 28.7314 35.5088 29.1221 34.8496 29.1221ZM35.8848 25.2695H36.7393C37.3203 25.2695 37.6768 24.9131 37.6768 24.3809C37.6768 23.8584 37.3008 23.4824 36.7441 23.4824H35.8848V25.2695ZM41.366 29.1221C40.7068 29.1221 40.3309 28.7314 40.3309 28.0381V22.916C40.3309 22.2227 40.7068 21.832 41.366 21.832C42.0252 21.832 42.4012 22.2227 42.4012 22.916V28.0381C42.4012 28.7314 42.0252 29.1221 41.366 29.1221ZM44.1129 29C43.4537 29 43.0777 28.6094 43.0777 27.916V23.0381C43.0777 22.3447 43.4537 21.9541 44.1129 21.9541H46.5396C47.9801 21.9541 48.8248 22.6133 48.8248 23.7119C48.8248 24.5225 48.2096 25.1328 47.3941 25.2354V25.2744C48.3463 25.2988 49.1422 26.0166 49.1422 26.9492C49.1422 28.1846 48.1656 29 46.6568 29H44.1129ZM45.148 24.7764H45.9488C46.4811 24.7764 46.8131 24.498 46.8131 24.0732C46.8131 23.6387 46.5006 23.375 45.9781 23.375H45.148V24.7764ZM45.148 27.5791H46.0318C46.6715 27.5791 47.0377 27.291 47.0377 26.7588C47.0377 26.2559 46.6666 25.9629 46.0465 25.9629H45.148V27.5791ZM50.5609 29C49.9018 29 49.5258 28.6094 49.5258 27.916V23.0381C49.5258 22.3447 49.9018 21.9541 50.5609 21.9541H53.6811C54.2377 21.9541 54.5941 22.252 54.5941 22.7793C54.5941 23.3066 54.2279 23.6045 53.6811 23.6045H51.5961V24.7373H53.598C54.0912 24.7373 54.4135 25.0059 54.4135 25.4795C54.4135 25.9531 54.101 26.2217 53.598 26.2217H51.5961V27.3496H53.6811C54.2279 27.3496 54.5941 27.6475 54.5941 28.1748C54.5941 28.7021 54.2377 29 53.6811 29H50.5609ZM56.1984 29.1221C55.5393 29.1221 55.1633 28.7314 55.1633 28.0381V23.0381C55.1633 22.3447 55.5393 21.9541 56.1984 21.9541H58.2932C60.173 21.9541 61.1398 22.8379 61.1398 24.3467C61.1398 25.1279 60.8078 25.8652 60.1389 26.2559L60.8762 27.4668C61.0568 27.7695 61.0959 27.9307 61.0959 28.1748C61.0959 28.7266 60.6662 29.1221 60.0656 29.1221C59.5578 29.1221 59.3527 28.9414 58.9865 28.292L58.0588 26.6367H57.2336V28.0381C57.2336 28.7314 56.8576 29.1221 56.1984 29.1221ZM57.2336 25.2695H58.0881C58.6691 25.2695 59.0256 24.9131 59.0256 24.3809C59.0256 23.8584 58.6496 23.4824 58.093 23.4824H57.2336V25.2695ZM64.5215 29.1221C62.9346 29.1221 62.0166 28.5508 61.7139 27.8623C61.6406 27.7012 61.6064 27.5352 61.6064 27.374C61.6064 26.876 61.9824 26.5342 62.4951 26.5342C62.8857 26.5342 63.1494 26.6562 63.4277 27.0469C63.6719 27.3936 64.082 27.5352 64.5459 27.5352C65.166 27.5352 65.5469 27.2812 65.5469 26.9346C65.5469 26.6025 65.2734 26.4609 64.4824 26.3193L63.7744 26.1924C62.373 25.9434 61.6064 25.2354 61.6064 24.1416C61.6064 22.7256 62.8271 21.832 64.502 21.832C65.8984 21.832 66.8994 22.3252 67.2656 23.2041C67.3242 23.3457 67.3535 23.4775 67.3535 23.6387C67.3535 24.1074 67.0117 24.4248 66.4941 24.4297C66.0547 24.4297 65.7764 24.2783 65.5273 23.9023C65.2979 23.5508 64.9707 23.4189 64.5264 23.4189C63.9502 23.4189 63.6572 23.6729 63.6572 23.9902C63.6572 24.3076 63.96 24.459 64.6631 24.5859L65.3711 24.7129C66.8848 24.9863 67.5977 25.6064 67.5977 26.749C67.5977 28.1992 66.4648 29.1221 64.5215 29.1221Z" fill="#1F2937"/>
<path d="M22.5547 38.1289C22.0898 38.1289 21.7734 37.8047 21.7734 37.3594C21.7734 36.918 22.0898 36.5938 22.5547 36.5938C23.0234 36.5938 23.3398 36.918 23.3398 37.3594C23.3398 37.8047 23.0234 38.1289 22.5547 38.1289ZM26.2461 38.1523C24.5586 38.1523 23.5195 37.0195 23.5195 35.1836V35.1758C23.5195 33.3398 24.5547 32.2109 26.2461 32.2109C27.6641 32.2109 28.6992 33.1211 28.7812 34.3672V34.4375H27.4023L27.3984 34.4023C27.3164 33.8125 26.8633 33.3984 26.2461 33.3984C25.4609 33.3984 24.9805 34.0703 24.9805 35.1719V35.1797C24.9805 36.2891 25.4609 36.9648 26.25 36.9648C26.8672 36.9648 27.3008 36.5781 27.3984 35.9961L27.4062 35.9531H28.7852V36.0156C28.6914 37.2734 27.6914 38.1523 26.2461 38.1523ZM29.3242 38V32.3633H30.7578V34.5742H33.0039V32.3633H34.4336V38H33.0039V35.7266H30.7578V38H29.3242ZM34.8828 38L36.7773 32.3633H38.5312L40.4258 38H38.9219L38.5742 36.7617H36.7344L36.3867 38H34.8828ZM37.6172 33.6055L37.0234 35.7305H38.2852L37.6914 33.6055H37.6172ZM41.6094 38V33.5156H39.9844V32.3633H44.668V33.5156H43.0391V38H41.6094ZM46.9375 32.0234L45.3984 39.4375H44.1367L45.6758 32.0234H46.9375Z" fill="#00AEEF"/>
</svg>
